<?xml version="1.0" encoding="utf-8" ?><svg xmlns="http://www.w3.org/2000/svg" xmlns:xlink="http://www.w3.org/1999/xlink" width="2048" height="2048" viewBox="0 0 2048 2048"><path fill="#6252DF" d="M575.062 715.252C580.774 701.598 613.079 688.172 627.139 685.283C638.389 682.972 652.23 682.247 663.129 678.769C683.632 672.227 703.337 663.129 724.593 658.929C765.607 650.004 811.282 657.145 846.855 679.664C855.405 685.076 863.57 694.539 872.309 700.157C877.387 698.501 886.04 689.469 891.234 686.319C925.321 665.765 967.448 667.325 999.814 690.593C1014.16 700.904 1020.85 709.932 1030.59 724.468C1052.4 701.646 1071.87 686.868 1101.08 674.958C1157.32 653.164 1204.22 664.355 1247.84 704.247C1258.23 697.096 1267.84 689.101 1278.42 682.25C1331.66 647.785 1400.7 655.017 1445.85 699.394C1452.9 706.317 1458.83 713.76 1465.21 721.337C1505.01 710.622 1523.8 716.558 1560.26 732.748C1573.68 710.547 1600.73 694.529 1625.42 688.364C1686.81 673.032 1746.27 704.428 1760.81 767.548C1773.67 823.341 1739.62 861.78 1733.22 914.679C1731.15 932.59 1738.34 954.374 1742.11 972.489C1752.73 1023.49 1749.47 1079.76 1721.7 1125.05C1710.46 1143.39 1702.67 1146.44 1688.55 1159.72C1687.82 1195.31 1695.75 1226.08 1700.59 1260.83C1706.88 1306.02 1700.04 1356.25 1665.87 1389.28C1637.01 1418.72 1586.18 1415.29 1558.92 1385.88C1531.94 1356.76 1522.22 1307.26 1524.62 1268.75C1527.13 1228.32 1538.73 1194.68 1536.22 1152.85C1527.98 1159.28 1520.77 1166.04 1512.3 1172.17C1491.28 1187.37 1465.13 1195.45 1439.18 1192.01C1429.54 1190.73 1409.45 1186.56 1401.86 1180.16L1398.87 1180.64C1396.41 1188.13 1398.67 1208.98 1395.01 1221.53C1392.82 1252.4 1364.77 1290.84 1332.51 1294.99C1296.53 1299.61 1268.68 1276.35 1257.37 1243.52C1247.22 1214.08 1251.39 1188.43 1255.11 1158.75C1254.8 1158.93 1254.5 1159.11 1254.19 1159.29L1252.68 1160.23C1245.83 1164.45 1241.75 1168.13 1235.57 1173.34C1241.65 1208.92 1238.47 1245.38 1210.61 1270.46C1164.52 1311.95 1095.12 1279.15 1087.82 1220.27C1086.17 1206.99 1086.1 1196.39 1086.35 1183.03C1085.81 1182.42 1085.27 1181.82 1084.72 1181.21C1080.28 1180.38 1065.04 1192.25 1060.24 1195.21C1018.56 1220.89 974.041 1215.76 937.201 1184.76C931.503 1179.82 923.566 1168.68 918.967 1166.91C916.223 1170.3 908.075 1175.41 904.049 1177.49C869.861 1195.19 845.742 1192.56 810.706 1182.41C811.67 1190.81 814.399 1202.81 816.561 1211.23C829.36 1261.04 821.821 1326.95 775.426 1357.79C737.406 1383.07 687.386 1368.21 664.666 1328.65C636.446 1279.52 645.821 1231.71 658.289 1179.83C634.455 1174.13 626.998 1172.32 606.79 1158.67C590.389 1172.09 571.765 1181.94 553.228 1191.94C545.359 1235.53 530.003 1269.05 481.05 1272.91C483.162 1285.64 484.019 1298.55 483.608 1311.45C482.559 1341.81 472.693 1374.97 449.696 1396.02C435.761 1408.79 417.271 1415.41 398.398 1414.39C378.389 1413.45 360.768 1405.11 347.789 1390.02C298.4 1332.62 326.703 1267.46 330.082 1205.42C265.9 1158.5 262.572 1064.69 333.742 1023.21C331.686 994.115 335.22 964.444 329.178 934.894C323.467 906.96 311.879 881.809 304.543 854.351C293.943 814.903 294.03 766.432 315.712 730.508C363.492 651.338 479.117 657.969 549.135 700.301C556.112 704.193 559.426 706.254 565.823 711.004C570.024 713.864 570.218 714.072 575.062 715.252Z"/><path fill="#000001" d="M610.975 707.901C616.815 706.828 626.588 700.421 633.8 698.985C648.474 696.062 663.767 696.407 677.525 690.483C722.517 671.109 768.711 660.649 815.529 681.38C841.719 692.977 857.746 707.92 868.161 734.711C871.882 729.936 875.947 724.805 879.688 720.209C921.206 669.199 992.728 678.082 1015.09 741.622C1016.52 745.677 1020.85 764.08 1023.39 766.261C1027.57 761.734 1028.9 757.586 1032.27 752.676C1049.76 727.246 1072.17 705.214 1100.44 692.108C1107.15 689 1115.21 687.326 1121.14 684.059L1123.14 683.89C1130.2 683.25 1137.13 680.735 1144.4 680.326C1191.43 677.685 1220.79 695.011 1246.18 732.988C1251.95 726.574 1257.46 720.582 1263.59 714.522C1309.27 669.398 1377.88 660.404 1427.04 705.524C1439.94 717.365 1446.15 727.552 1455.94 741.689C1493.53 722.272 1532.31 728.512 1561.05 757.697C1563.5 760.186 1563.41 761.137 1566.05 760.008C1569.83 753.839 1572.85 746.977 1576.68 741.22C1589.74 721.707 1609.59 707.748 1632.37 702.054C1655.39 696.494 1679.11 698.89 1699.44 711.424C1718 722.82 1731.26 741.141 1736.28 762.337C1740.48 780.588 1738.4 806.346 1732.1 823.798C1718.06 862.751 1699.55 900.208 1711.7 942.679C1729.96 1006.44 1732.09 1091.55 1668.74 1131.89C1665.83 1148.48 1664.21 1166.21 1665.72 1183.07C1666.09 1187.27 1667.57 1191.07 1668.11 1195.19C1668.96 1201.72 1668.61 1208.4 1669.5 1214.95C1670.77 1224.4 1673.63 1233.8 1674.91 1243.42C1680.25 1283.63 1679.95 1339.53 1642.29 1365.05C1631.71 1372.22 1619.07 1375.87 1606.37 1373.17C1589.28 1369.54 1574.94 1357.06 1566 1342.48C1522.05 1270.78 1585.62 1170.98 1549.29 1109.27C1546.64 1104.77 1544.15 1100.08 1540.35 1096.45C1535.68 1096.31 1533.46 1103.89 1531.34 1107.34C1497.46 1162.77 1423.26 1177.4 1383.2 1119.51C1381.92 1117.66 1380.51 1117.88 1378.8 1118.34C1361.45 1146.31 1396.2 1245.21 1331.87 1258.2C1304.32 1263.7 1283.88 1244.86 1278.17 1218.75C1271.89 1190.05 1279.89 1163.94 1279.83 1135.4C1279.81 1128.13 1259.58 1123.74 1252.38 1118.74C1246.43 1123.94 1241.84 1127.39 1235.34 1131.76C1230.44 1135.06 1220.34 1140.35 1216.61 1144.07C1208.65 1151.98 1213.2 1173 1213.89 1182.81C1215.34 1203.5 1212.55 1224.26 1196.62 1239.13C1183.89 1250.41 1176.73 1253.25 1159.62 1252.13C1145.49 1251.35 1135.69 1247.27 1125.96 1236.6C1117.66 1227.51 1116.77 1219.83 1113.01 1209.09C1110.46 1201.82 1113.42 1153.58 1110.07 1152.77C1099.49 1150.2 1084.07 1143.94 1074.5 1142.87C1069.21 1145.78 1060.11 1155.32 1054.49 1159.76C1034.55 1175.23 1008.39 1180.15 984.196 1172.99C962.132 1166.37 943.556 1151.34 932.478 1131.14C930.119 1126.78 928.178 1122.29 926.276 1117.72C904.441 1139.1 886.368 1154.41 853.466 1154.68C841.889 1154.78 822.441 1150.67 813.439 1143.55C809.195 1143.55 792.439 1142.46 790.512 1142.92C785.036 1150.76 789.109 1183.74 791.064 1192.53C798.522 1226.03 805.115 1278.9 781.702 1308.16C739.777 1360.55 678.774 1328.44 672.791 1267.87C667.925 1218.62 684.689 1188.17 683.951 1144.11C653.303 1144.36 632.001 1140.71 609.112 1118.11C594.072 1126.6 580.565 1139.26 564.64 1147.89C554.701 1153.28 533.011 1157.89 530.893 1169.28C526.301 1206.59 514.181 1244.14 467.372 1234.82C462.492 1233.85 455.897 1228.94 451.296 1228.42C449.598 1231.99 455.177 1258.91 456.286 1264.1C464.199 1301.08 460.854 1360.49 418.619 1375.32C386.164 1386.72 358.166 1363.45 349.569 1333.34C342.489 1308.55 342.195 1285.29 345.9 1259.76C346.155 1257.97 346.228 1258.08 346.107 1256.12C351.308 1246.98 357.68 1187.11 350.255 1178.63C304.824 1159.69 294.522 1097.35 319.552 1058.48C328.583 1044.46 341.247 1037.68 355.975 1031.02C356.324 997.675 359.001 944.07 351.115 913.363C336.032 854.639 302.337 800.585 335.103 738.464C347.119 715.515 367.8 698.315 392.554 690.683C427.566 679.939 471.963 685.451 505.99 697.851C518.27 702.326 530.165 708.696 541.726 714.819C545.542 718.008 548.586 719.478 551.657 721.914C558.663 726.613 563.356 730.356 569.908 735.738L576.65 742.029C582.089 734.23 586.139 729.242 592.286 721.967C598.371 716.572 604.349 712.538 610.975 707.901Z"/><path fill="#8480F8" d="M363.29 845.822C360.64 838.258 358.4 830.557 356.581 822.752C350.739 798.332 352.957 765.131 366.613 743.44C400.583 689.481 485.219 714.502 528.533 741.928C534.121 746.911 547.079 755.856 551.121 761.358C588.673 795.919 577.088 841.303 544.976 874.709C542.419 877.369 540.5 878.494 542.42 881.814L543.713 882.21C548.547 881.7 561.408 880.875 565.828 881.863C568.355 883.939 569.689 887.4 570.301 890.618C577.148 893.751 585.691 896.263 592.149 899.813C613.047 911.3 633.096 926.187 642.206 949.013C647.94 963.382 649.831 988.795 642.307 1002.74C638.697 1016.73 625.679 1038.67 616.37 1049.95C607.291 1062.34 599.466 1070.84 588.353 1081.66C574.277 1094.77 568.585 1097.53 552.218 1108C537.15 1117.65 516.153 1122.19 504.499 1133.69C496.81 1141.28 497.091 1171.36 493.999 1175.9C493.856 1179.16 494.041 1181.61 492.711 1184.58C490.9 1192.95 484.305 1201.7 476.413 1197.25C463.554 1190.01 472.088 1159.03 463.467 1146.94C455.652 1135.98 445.347 1133.89 435.588 1142.04C424.942 1150.93 421.478 1165.14 418.237 1177.88C417.465 1180.99 417.603 1181.43 416.017 1184.27C415.536 1197.64 414.306 1218.97 416.273 1231.9C420.431 1259.23 424.82 1278.29 424.12 1306.41C424.251 1317.6 419.151 1332.08 408.903 1337.77C398.253 1344.77 388.049 1336.3 383.236 1326.71C366.663 1293.68 380.804 1253.87 384.806 1219.58C386.555 1204.59 387.72 1188.16 384.586 1173.31C378.247 1136.29 349.425 1150.52 340.833 1114.96C337.137 1099.67 337.859 1088.05 346.049 1074.01C348.568 1069.55 352.971 1064.43 357.736 1062.25C365.291 1062.2 370.468 1062.31 377.96 1062.5C384.537 1060.89 391.289 1063.24 397.632 1060.46L395.907 1056.44C392.806 1053.69 389.107 1051.89 385.6 1048.71C386.015 1040.36 387.416 1031.72 387.701 1023.5C388.978 1005.44 387.826 986.959 388.395 968.947C389.345 938.902 385.645 914.098 377.978 884.814C375.318 880.696 365.658 852.067 363.29 845.822Z"/><path fill="#6357E3" d="M346.049 1074.01C346.324 1077.87 345.821 1080.31 347.837 1083.01C350.965 1083.18 352.688 1082.99 355.751 1082.72C352.471 1089.88 352.476 1103.23 355.508 1110.9C364.278 1133.09 387.807 1135.67 393.535 1159.69C396.516 1172.19 395.882 1182.82 396.349 1195.51C398.988 1192.23 398.169 1190.77 398.494 1186.75C399.263 1177.23 408.514 1156.49 415.539 1150.64L415.746 1155.32L417.7 1156.26C413.727 1172.91 414.652 1167.22 416.017 1184.27C415.536 1197.64 414.306 1218.97 416.273 1231.9C420.431 1259.23 424.82 1278.29 424.12 1306.41C424.251 1317.6 419.151 1332.08 408.903 1337.77C398.253 1344.77 388.049 1336.3 383.236 1326.71C366.663 1293.68 380.804 1253.87 384.806 1219.58C386.555 1204.59 387.72 1188.16 384.586 1173.31C378.247 1136.29 349.425 1150.52 340.833 1114.96C337.137 1099.67 337.859 1088.05 346.049 1074.01Z"/><path fill="#A9AAF8" d="M396.349 1195.51C398.988 1192.23 398.169 1190.77 398.494 1186.75C399.263 1177.23 408.514 1156.49 415.539 1150.64L415.746 1155.32L417.7 1156.26C413.727 1172.91 414.652 1167.22 416.017 1184.27C415.536 1197.64 414.306 1218.97 416.273 1231.9C420.431 1259.23 424.82 1278.29 424.12 1306.41C421.713 1309.32 421.55 1309.16 421.246 1313.08C416.496 1314 410.99 1317.39 407.477 1317.72C405.552 1310.23 412.566 1306.03 412.4 1296.34C412.155 1282.08 409.771 1269.88 405.409 1256.27C403.604 1250.64 400.567 1247.96 400.091 1243.41C399.838 1240.99 400.431 1241.94 399.544 1240.1C396.712 1234.21 399.384 1202.26 397.4 1198.56L396.555 1199.73L396.349 1195.51Z"/><path fill="#827EEF" d="M409.634 1248.4C412.624 1248.92 414.248 1250.01 416.757 1251.69C419.208 1256.4 418.078 1259.5 417.159 1264.76C411.646 1261.11 411.67 1255.1 409.634 1248.4Z"/><path fill="#8480F8" d="M396.555 1199.73L397.4 1198.56C399.384 1202.26 396.712 1234.21 399.544 1240.1C400.431 1241.94 399.838 1240.99 400.091 1243.41C400.567 1247.96 403.604 1250.64 405.409 1256.27C409.771 1269.88 412.155 1282.08 412.4 1296.34C412.566 1306.03 405.552 1310.23 407.477 1317.72C403.475 1318.46 402.612 1318.75 398.959 1320.55C395.758 1320.27 396.816 1320.72 394.171 1319.28C382.502 1299.31 390.748 1222.99 396.555 1199.73Z"/><path fill="#6252DF" d="M421.246 1313.08C421.55 1309.16 421.713 1309.32 424.12 1306.41C424.251 1317.6 419.151 1332.08 408.903 1337.77L405.501 1334.79C402.35 1334.41 402.051 1334.41 399.084 1333.37C401.129 1332.15 403.152 1330.9 405.152 1329.61L403.532 1328.29C410.556 1327.61 410.337 1328.28 413.968 1322.74C414.522 1321.41 419.271 1316.62 421.246 1313.08Z"/><path fill="#827EEF" d="M407.477 1317.72C410.99 1317.39 416.496 1314 421.246 1313.08C419.271 1316.62 414.522 1321.41 413.968 1322.74C405.905 1325.6 399.408 1327.73 394.171 1319.28C396.816 1320.72 395.758 1320.27 398.959 1320.55C402.612 1318.75 403.475 1318.46 407.477 1317.72Z"/><path fill="#6252DF" d="M363.29 845.822C360.64 838.258 358.4 830.557 356.581 822.752C350.739 798.332 352.957 765.131 366.613 743.44C400.583 689.481 485.219 714.502 528.533 741.928C526.724 742.251 521.88 743.199 520.357 742.388C487.998 725.153 416.965 697.169 386.662 730.687C374.744 739.962 370.854 758.757 368.574 772.783C361.329 817.338 387.759 857.351 396.65 897.384C402.342 923.014 408.479 1039.51 397.632 1060.46L395.907 1056.44C392.806 1053.69 389.107 1051.89 385.6 1048.71C386.015 1040.36 387.416 1031.72 387.701 1023.5C388.978 1005.44 387.826 986.959 388.395 968.947C389.345 938.902 385.645 914.098 377.978 884.814C375.318 880.696 365.658 852.067 363.29 845.822Z"/><path fill="#C7CBFE" d="M429.25 725.867L441.217 726.326C448.404 729.738 459.982 728.497 467.357 731.013C508.435 745.024 572.81 781.899 549.359 834.842C547.361 839.352 545.095 843.725 542.97 848.073C531.762 863.851 527.827 865.095 527.794 884.535C539.992 902.699 559.824 902.609 575.93 911.79C589.289 919.231 606.263 930.057 612.655 944.808C617.635 958.126 618.61 966.507 617.408 980.94C617.09 984.747 616.156 988.642 616.123 992.385C604.197 1034.22 583.341 1049.33 547.546 1074.12C539.595 1079.63 528.959 1085.22 521.308 1090.7L520.17 1087.81C525.467 1085.03 535.733 1077.46 540.945 1073.91C565.046 1057.46 590.949 1037.39 603.056 1009.89L601.858 1007.79C601.403 1001.37 604.938 1001.96 605.848 993.333C606.75 984.78 607.524 978.661 607.667 969.886C607.773 963.328 605.077 952.553 607.117 948.14C594.389 918.278 568.26 915.415 541.776 903.524C495.085 882.561 543.923 849.57 547.499 822.978C544.602 817.569 547.352 812.175 546.03 804.725C544.442 795.777 533.93 785.706 534.175 778.873C525.932 761.539 471.168 737.273 452.038 733.679C432.959 730.095 409.969 727.29 394.689 742.473C391.023 746.116 387.133 757.776 382.698 760.529C382.824 752.617 390.309 744.204 395.23 737.558C409.747 730.336 410.551 726.325 429.25 725.867Z"/><path fill="#827EEF" d="M607.117 948.14C614.336 966.627 612.706 987.983 604.917 1005.99C604.348 1007.31 603.727 1008.61 603.056 1009.89L601.858 1007.79C601.403 1001.37 604.938 1001.96 605.848 993.333C606.75 984.78 607.524 978.661 607.667 969.886C607.773 963.328 605.077 952.553 607.117 948.14Z"/><path fill="#827EEF" d="M534.175 778.873C548.14 789.797 550.812 806.659 547.499 822.978C544.602 817.569 547.352 812.175 546.03 804.725C544.442 795.777 533.93 785.706 534.175 778.873Z"/><path fill="#827EEF" d="M551.121 761.358C588.673 795.919 577.088 841.303 544.976 874.709C542.419 877.369 540.5 878.494 542.42 881.814L543.713 882.21C548.547 881.7 561.408 880.875 565.828 881.863C568.355 883.939 569.689 887.4 570.301 890.618C577.148 893.751 585.691 896.263 592.149 899.813C613.047 911.3 633.096 926.187 642.206 949.013C647.94 963.382 649.831 988.795 642.307 1002.74C641.454 993.743 642.323 982.062 641.573 971.958C641.521 969.844 638.517 955.928 637.935 954.365C625.559 921.135 590.268 903.497 558.509 893.542C556.455 892.898 556.645 892.46 553.722 892.045L553.384 893.612C556.515 905.549 570.701 902.582 575.93 911.79C559.824 902.609 539.992 902.699 527.794 884.535C527.827 865.095 531.762 863.851 542.97 848.073C545.607 847.143 551.175 847.167 555.313 846.3C562.349 837.356 569.337 817.987 569.954 806.527C569.992 805.823 563.635 786.119 563.348 782.684C563.042 779.019 553.584 766.41 551.121 761.358Z"/><path fill="#00000D" d="M543.713 882.21C548.547 881.7 561.408 880.875 565.828 881.863C568.355 883.939 569.689 887.4 570.301 890.618C561.864 887.149 551.252 885.523 543.713 882.21Z"/><path fill="#6357E3" d="M576.814 1074.96C586.247 1069.31 607.244 1046.49 614.221 1037.88C620.238 1043.98 616.184 1042.04 616.37 1049.95C607.291 1062.34 599.466 1070.84 588.353 1081.66C574.277 1094.77 568.585 1097.53 552.218 1108C537.15 1117.65 516.153 1122.19 504.499 1133.69C496.81 1141.28 497.091 1171.36 493.999 1175.9C493.093 1167.85 493.046 1157.02 494.197 1149.09C498.919 1116.59 520.81 1107.84 546.391 1094.41C557.373 1088.64 566.903 1082.42 576.814 1074.96Z"/><path fill="#6357E3" d="M417.7 1156.26C428.538 1135.78 433.095 1122.82 459.393 1124.12C482.319 1136.49 477.43 1157.27 480.728 1179.06C483.276 1182.1 485.274 1185.3 488.975 1186.33C491.1 1185.55 490.793 1185.76 492.711 1184.58C490.9 1192.95 484.305 1201.7 476.413 1197.25C463.554 1190.01 472.088 1159.03 463.467 1146.94C455.652 1135.98 445.347 1133.89 435.588 1142.04C424.942 1150.93 421.478 1165.14 418.237 1177.88C417.465 1180.99 417.603 1181.43 416.017 1184.27C414.652 1167.22 413.727 1172.91 417.7 1156.26Z"/><path fill="#6252DF" d="M627.731 1016.04C632.464 1006.04 638.412 989.535 640.153 978.44C640.714 974.863 640.092 975.9 641.573 971.958C642.323 982.062 641.454 993.743 642.307 1002.74C638.697 1016.73 625.679 1038.67 616.37 1049.95C616.184 1042.04 620.238 1043.98 614.221 1037.88L621.203 1027.89L627.731 1016.04Z"/><path fill="#6357E3" d="M357.736 1062.25C365.291 1062.2 370.468 1062.31 377.96 1062.5L371.574 1064.38C365.54 1066.13 360.386 1072.34 357.752 1077.93C357.03 1079.5 356.362 1081.1 355.751 1082.72C352.688 1082.99 350.965 1083.18 347.837 1083.01C345.821 1080.31 346.324 1077.87 346.049 1074.01C348.568 1069.55 352.971 1064.43 357.736 1062.25Z"/><path fill="#827EEF" d="M612.655 944.808C622.151 947.883 625.251 983.923 616.123 992.385C616.156 988.642 617.09 984.747 617.408 980.94C618.61 966.507 617.635 958.126 612.655 944.808Z"/><path fill="#827EEF" d="M429.25 725.867C426.527 724.332 424.593 722.857 421.518 722.667C426.579 720.316 440.803 722.153 446.126 724.247L446.637 725.521L441.217 726.326L429.25 725.867Z"/><path fill="#A9AAF8" d="M521.308 1090.7C518.947 1092.6 518.534 1093.27 515.596 1093.97L514.735 1093.1C516.27 1089.83 516.781 1090.26 520.17 1087.81L521.308 1090.7Z"/><path fill="#6252DF" d="M459.189 952.289C457.53 948.951 459.587 937.547 460.246 933.484C460.695 930.716 465.073 926.98 468.031 925.922C483.629 920.696 503.05 925.624 517.589 931.998C529.828 937.364 543.131 946.555 548.321 959.147C554.988 975.324 543.355 995.525 530.306 1005.05C522.717 1013.59 480.959 1037.65 470.476 1039.07C466.885 1034.74 464.893 998.439 462.284 989.304C459.898 980.952 459.44 961.425 459.189 952.289Z"/><path fill="#000001" d="M467.787 950.052C467.684 946.318 467.106 943.615 469.073 940.581C472.166 938.745 476.694 939.457 480.487 939.591C508.228 940.487 543.936 955.969 531.564 990.142C524.543 1000.52 483.5 1035.48 474.092 1029.11L473.849 1024.89C471.833 1021.42 467.77 957.645 467.787 950.052Z"/><path fill="#00000D" d="M467.787 950.052C475.092 960.186 476.902 949.604 474.395 962.726C470.835 981.349 477.361 1005.87 473.849 1024.89C471.833 1021.42 467.77 957.645 467.787 950.052Z"/><path fill="#000001" d="M433.88 835.523C429.919 830.8 429.515 779.555 435.818 776.89C456.475 768.159 490.698 788.831 497.66 809.093C510.107 838.956 469.213 880.264 440.253 875.519L439.909 871.55C440.023 868.739 435.479 845.426 434.124 842.786L433.88 835.523Z"/><path fill="#6252DF" d="M433.88 835.523C429.919 830.8 429.515 779.555 435.818 776.89C456.475 768.159 490.698 788.831 497.66 809.093C510.107 838.956 469.213 880.264 440.253 875.519L439.909 871.55C441.592 871.731 443.249 871.952 444.958 871.49C483.346 861.113 508.209 823.669 466.262 795.854C460.247 791.866 441.911 785.087 435.769 786.524C432.045 791.756 433.788 827.317 433.88 835.523Z"/><path fill="#C7CBFE" d="M417.637 815.188C427.478 823.095 422.769 856.895 429.531 865.685C435.596 861.393 432.971 849.674 434.124 842.786C435.479 845.426 440.023 868.739 439.909 871.55L440.253 875.519L438.382 875.219L435.506 874.888C433.571 877.29 433.971 877.361 433.347 880.615L434.978 882.486C453.371 896.153 467.613 875.884 481.302 872.736C479.17 877.777 469.903 883.074 465.129 885.948C425.517 909.795 414.296 859.786 415.632 830.883C415.865 825.835 415.256 819.719 417.637 815.188Z"/><path fill="#827EEF" d="M417.637 815.188C427.478 823.095 422.769 856.895 429.531 865.685C435.596 861.393 432.971 849.674 434.124 842.786C435.479 845.426 440.023 868.739 439.909 871.55L440.253 875.519L438.382 875.219L435.506 874.888C433.571 877.29 433.971 877.361 433.347 880.615C421.853 866.346 418.503 833.512 417.637 815.188Z"/><path fill="#C7CBFE" d="M443.857 957.844C443.868 951.371 444.907 937.91 449.015 932.792L449.725 934.02L452.904 933.681C453.636 934.99 452.865 943.498 452.508 945.234C450.808 953.514 456.515 984.513 452.33 990.175C452.322 999.244 455.906 1011.87 454.328 1021.41C454.1 1022.79 449.977 1033.01 449.17 1035.33L448.977 1033.89L449.474 1034.34C448.775 1030.14 449.856 1026.17 449.829 1021.95C449.764 1012.07 449.659 997.251 446.565 987.958L446.121 993.127L445.205 993.225C442.655 985.911 439.403 964.339 443.857 957.844Z"/><path fill="#827EEF" d="M449.725 934.02L452.904 933.681C453.636 934.99 452.865 943.498 452.508 945.234C450.808 953.514 456.515 984.513 452.33 990.175C451.935 983.062 450.453 976.897 450.22 969.118C449.868 957.348 449.938 945.769 449.725 934.02Z"/><path fill="#827EEF" d="M446.565 987.958L446.121 993.127L445.205 993.225C442.655 985.911 439.403 964.339 443.857 957.844C444.315 968.71 445.421 977.213 446.565 987.958Z"/><path fill="#8480F8" d="M1587.78 906.045C1591.16 907.568 1591.48 907.826 1594.28 905.826C1594.5 904.144 1594.93 900.149 1595.87 899.001C1599.51 894.567 1598.56 886.147 1598.49 879.849C1598.08 838.402 1577.02 790.278 1603.4 752.802C1613.11 739.104 1627.94 729.901 1644.53 727.273C1656.66 725.243 1671.07 727.02 1681.24 734.312C1708.43 753.089 1705.21 786.113 1694.79 813.334C1684.53 840.169 1676.37 866.286 1671.86 894.8C1665.92 951.072 1702.38 1007.1 1677.28 1062.84C1673.52 1071.2 1669.01 1084.24 1660.65 1089C1656.84 1091.88 1647.66 1095.81 1646.29 1097.05C1620.89 1120.07 1631.52 1177.92 1632 1204.05C1635.66 1208.99 1634.03 1228.24 1637.82 1235.94C1637.01 1234.3 1642.04 1265.38 1642.07 1265.87C1643.45 1284.33 1639.24 1329.09 1616.27 1333.29C1589.15 1338.25 1582.34 1288.87 1582.36 1270.49C1582.23 1252.26 1585.65 1233.1 1588.55 1215.03C1593.1 1183.86 1593.8 1152.62 1590.43 1121.41C1587.84 1096.14 1569.02 1080.27 1559.53 1058.62C1553.72 1045.33 1543.47 916.855 1517.64 926.928C1508.3 938.24 1510.28 967.635 1510.05 982.355C1512.7 1003.87 1514.82 1040.91 1508.48 1061.54C1508.48 1061.6 1508.47 1061.66 1508.47 1061.72C1508.1 1066.15 1506.07 1070.42 1504.4 1074.52C1495.79 1095.65 1474.92 1112.54 1451.94 1114.71C1440.31 1115.7 1428.78 1111.91 1420.01 1104.21C1407.54 1093.34 1404.27 1080.67 1403.05 1065.22C1405.73 1060.06 1409.59 1055.59 1413.2 1050.98C1414.09 1049.95 1414.94 1048.89 1415.76 1047.81C1451.25 1001.13 1468.91 904.493 1465.85 846.59C1464.84 827.463 1462.24 815.22 1459.85 797.115C1447.15 774.908 1471.03 761.366 1490.01 758.295C1514.57 754.32 1531.5 764.903 1542.65 786.294C1554.35 811.213 1561.36 841.084 1570.91 867.233C1575.77 880.524 1581.92 893.18 1587.78 906.045Z"/><path fill="#6252DF" d="M1510.05 982.355C1505.61 975.362 1507.12 930.745 1510.43 920.995C1511.98 911.735 1524.85 909.796 1531.57 913.599C1554.05 926.331 1563.27 976.424 1566.27 1000.66C1570.95 1038.41 1568.63 1050.25 1591.86 1083.08C1605.52 1102.38 1608.6 1155.69 1605.39 1180.44C1607.49 1178.46 1606.27 1179.02 1609.28 1179.09C1609.87 1168.98 1609.99 1162.64 1611.76 1152.62L1613.26 1151.95L1614.49 1153.94L1615.17 1153.61C1616.84 1142.05 1626.65 1099.56 1634.17 1092.84C1639.27 1087.37 1642.7 1082.39 1648.47 1076.5C1649.22 1078.69 1649.85 1080.58 1650.49 1082.82C1653.53 1085.25 1651.92 1084.69 1655.25 1085.25L1658.04 1084.1C1660.66 1086.18 1659.5 1084.98 1660.65 1089C1656.84 1091.88 1647.66 1095.81 1646.29 1097.05C1620.89 1120.07 1631.52 1177.92 1632 1204.05C1635.66 1208.99 1634.03 1228.24 1637.82 1235.94C1637.01 1234.3 1642.04 1265.38 1642.07 1265.87C1643.45 1284.33 1639.24 1329.09 1616.27 1333.29C1589.15 1338.25 1582.34 1288.87 1582.36 1270.49C1582.23 1252.26 1585.65 1233.1 1588.55 1215.03C1593.1 1183.86 1593.8 1152.62 1590.43 1121.41C1587.84 1096.14 1569.02 1080.27 1559.53 1058.62C1553.72 1045.33 1543.47 916.855 1517.64 926.928C1508.3 938.24 1510.28 967.635 1510.05 982.355Z"/><path fill="#A9AAF8" d="M1634.17 1092.84C1639.27 1087.37 1642.7 1082.39 1648.47 1076.5C1649.22 1078.69 1649.85 1080.58 1650.49 1082.82C1653.53 1085.25 1651.92 1084.69 1655.25 1085.25L1658.04 1084.1C1660.66 1086.18 1659.5 1084.98 1660.65 1089C1656.84 1091.88 1647.66 1095.81 1646.29 1097.05C1620.89 1120.07 1631.52 1177.92 1632 1204.05C1631.4 1212.47 1630.75 1219.9 1631.53 1228.36C1632.17 1235.32 1633.69 1240.87 1633.9 1247.81C1633.62 1251.13 1633.97 1258.71 1633.14 1260.9C1633.14 1255.93 1632.72 1252.98 1632.05 1248.11L1631.43 1247.93C1630.79 1252.36 1630.38 1260.33 1631.03 1264.92C1632.29 1273.84 1629.38 1279.13 1627.98 1287.24C1627.26 1291.39 1619.24 1299.04 1615.04 1301.06L1613.76 1298.05C1614.52 1296.7 1615.26 1295.39 1615.82 1293.95C1620.99 1280.67 1619.26 1228.02 1613.46 1214.53C1613.22 1213.97 1612.97 1213.42 1612.72 1212.87L1611.71 1215.67C1609.23 1212.85 1608.15 1200.69 1607.42 1196.1L1607.38 1198.77C1605.58 1193.14 1605.83 1187.97 1605.66 1182.04L1605.39 1180.44C1607.49 1178.46 1606.27 1179.02 1609.28 1179.09C1609.87 1168.98 1609.99 1162.64 1611.76 1152.62L1613.26 1151.95L1614.49 1153.94L1615.17 1153.61C1616.84 1142.05 1626.65 1099.56 1634.17 1092.84Z"/><path fill="#827EEF" d="M1605.39 1180.44C1607.49 1178.46 1606.27 1179.02 1609.28 1179.09C1609.87 1168.98 1609.99 1162.64 1611.76 1152.62L1613.26 1151.95L1614.49 1153.94C1612.91 1171.02 1610.54 1190.03 1613.08 1207.11C1613.55 1210.28 1613.53 1209.54 1612.72 1212.87L1611.71 1215.67C1609.23 1212.85 1608.15 1200.69 1607.42 1196.1L1607.38 1198.77C1605.58 1193.14 1605.83 1187.97 1605.66 1182.04L1605.39 1180.44Z"/><path fill="#8480F8" d="M1605.66 1182.04C1605.83 1187.97 1605.58 1193.14 1607.38 1198.77L1607.42 1196.1C1608.15 1200.69 1609.23 1212.85 1611.71 1215.67L1612.72 1212.87C1612.97 1213.42 1613.22 1213.97 1613.46 1214.53C1619.26 1228.02 1620.99 1280.67 1615.82 1293.95C1615.26 1295.39 1614.52 1296.7 1613.76 1298.05L1615.04 1301.06C1619.24 1299.04 1627.26 1291.39 1627.98 1287.24C1629.38 1279.13 1632.29 1273.84 1631.03 1264.92C1630.38 1260.33 1630.79 1252.36 1631.43 1247.93L1632.05 1248.11C1632.72 1252.98 1633.14 1255.93 1633.14 1260.9C1633.97 1258.71 1633.62 1251.13 1633.9 1247.81C1637.67 1254.03 1636.75 1280.46 1635.96 1288.83C1634.15 1307.71 1616.09 1333.75 1601.85 1305.14C1599.33 1300.07 1599.81 1295.04 1598.4 1290.24C1590.91 1264.91 1598.84 1238.28 1602.48 1213C1603.55 1205.63 1603.23 1188.36 1605.66 1182.04Z"/><path fill="#6252DF" d="M1587.78 906.045C1591.16 907.568 1591.48 907.826 1594.28 905.826C1594.5 904.144 1594.93 900.149 1595.87 899.001C1599.51 894.567 1598.56 886.147 1598.49 879.849C1598.08 838.402 1577.02 790.278 1603.4 752.802C1613.11 739.104 1627.94 729.901 1644.53 727.273C1656.66 725.243 1671.07 727.02 1681.24 734.312C1654.73 734.708 1646.14 726.38 1624.59 750.634C1587.5 792.395 1624.6 846.152 1613.99 894.799C1610.4 911.242 1592.31 919.9 1587.78 906.045Z"/><path fill="#C7CBFE" d="M1644.34 751.917C1651.05 751.818 1654.98 751.976 1661.66 752.608C1693.12 777.448 1667.68 835.228 1658.62 866.583C1642.62 921.949 1659 954.29 1669.24 1007.08C1673.2 1027.51 1661.82 1059.27 1648.47 1076.5C1642.7 1082.39 1639.27 1087.37 1634.17 1092.84C1634.75 1087.84 1643.43 1078.38 1646.67 1073.31C1675.7 1031.36 1660.77 992.346 1649.28 947.507C1641.23 916.047 1646.82 882.265 1656.18 851.335C1663.65 826.642 1686.44 774.202 1658.53 755.5C1647.89 755.207 1646.33 757.337 1637.43 758.093C1638.6 755.364 1641.74 753.735 1644.34 751.917Z"/><path fill="#6252DF" d="M1403.05 1065.22C1405.73 1060.06 1409.59 1055.59 1413.2 1050.98C1413.52 1051.54 1413.84 1052.11 1414.16 1052.67C1419.83 1067.26 1418.46 1077.85 1429.95 1090.14C1457.72 1119.84 1490.15 1088.58 1506.45 1064.04C1507.35 1062.67 1507.15 1063.01 1508.47 1061.72C1508.1 1066.15 1506.07 1070.42 1504.4 1074.52C1495.79 1095.65 1474.92 1112.54 1451.94 1114.71C1440.31 1115.7 1428.78 1111.91 1420.01 1104.21C1407.54 1093.34 1404.27 1080.67 1403.05 1065.22Z"/><path fill="#6252DF" d="M1459.85 797.115C1447.15 774.908 1471.03 761.366 1490.01 758.295C1514.57 754.32 1531.5 764.903 1542.65 786.294L1536.64 780.248C1532.93 776.512 1528.68 774.456 1524.77 771.811C1500.21 755.195 1470.33 771.461 1460.32 796.243C1460.17 796.534 1460.01 796.825 1459.85 797.115Z"/><path fill="#C7CBFE" d="M1493.12 932.949C1495.51 925.182 1498.03 915.106 1505.1 911.19L1506.69 911.171C1504.58 916.302 1500.83 920.943 1499.82 926.295C1496.81 942.391 1497.23 959.247 1498.03 975.637C1499.75 1011.18 1510.29 1061.97 1471.87 1082.42C1466.93 1085.06 1456.15 1084.72 1452.09 1080.46L1453.49 1080.56C1477.93 1082.17 1484.91 1068.59 1491.38 1047.87C1490.89 1047.14 1489.68 1045.08 1489.92 1044.46C1494.8 1031.66 1486.36 973.488 1491.62 966.025C1492.24 955.522 1490.76 943.369 1493.12 932.949Z"/><path fill="#827EEF" d="M1491.62 966.025L1492.07 967.062C1490.74 992.108 1499.03 1020.38 1491.38 1047.87C1490.89 1047.14 1489.68 1045.08 1489.92 1044.46C1494.8 1031.66 1486.36 973.488 1491.62 966.025Z"/><path fill="#D0D7FE" d="M1493.12 932.949C1495.11 934.565 1495.56 934.167 1495.62 937.059C1495.76 943.333 1496.94 964.128 1494.7 968.693C1493.01 967.929 1493.31 968.297 1492.07 967.062L1491.62 966.025C1492.24 955.522 1490.76 943.369 1493.12 932.949Z"/><path fill="#C7CBFE" d="M1495.57 784.242C1528.57 781.148 1534.69 805.408 1542.99 831.501C1549.29 851.309 1552.93 872.919 1563.01 891.248C1564.28 893.553 1564.23 893.665 1563.44 895.753L1561.78 894.566C1554.75 882.97 1548.29 867.103 1543.31 853.814C1536.54 835.755 1534.1 805.782 1517.74 791.954C1509.77 785.215 1501.97 786.184 1492.73 787.398L1492.04 786.553L1495.57 784.242Z"/><path fill="#8480F8" d="M645.931 725.903C652.426 722.122 669.608 723.49 677.162 720.571C684.215 717.846 692.483 715.076 699.214 711.79C737.87 692.92 804.17 688.589 831.8 730.137C855.924 770.559 824.35 796.278 785.053 790.433C761.968 787 719.849 790.851 712.961 817.697C707.707 835.624 710.478 848.095 723.167 861.395C726.296 861.579 733.103 861.774 735.843 862.415C743.709 860.715 746.615 860.032 754.591 859.927C764.379 859.667 771.653 858.572 780.151 863.98C783.611 865.509 786.448 868.669 789.25 871.324C799.516 881.986 805.953 906.006 799.132 919.593C784.016 948.835 754.652 923.008 729.93 935.445C724.081 940.169 721.373 942.038 718.547 949.23C711.815 969.158 716.241 991.627 736.804 1000.62C741.397 1002.63 752.208 1004.5 757.288 1001.25C773.797 987.31 758.798 974.939 783.85 961.664C800.678 961.938 803.829 964.511 817.92 973.188C847.744 999.6 873.697 1046.16 845.375 1083.06C825.314 1106.62 800.314 1104.06 772.143 1103.9C765.881 1107.92 765.267 1108.44 761.203 1114.55C758.063 1119.26 756.255 1132.06 754.005 1135.16C753.824 1139.39 754.123 1142.54 752.145 1146.22C752.287 1159.01 752.888 1168.89 754.356 1181.72C754.911 1186.58 756.32 1199.37 756.125 1203.74C758.204 1207.43 757.853 1209.66 758.025 1214.05C762.715 1220.88 762.064 1253.19 761.094 1262.2C758.276 1288.4 727.145 1311.32 711.343 1279.03C684.902 1227.51 743.797 1145.08 701 1100.6C695.326 1094.7 653.951 1125.57 624.173 1073.9C623.375 1071.9 623.156 1071.04 622.635 1068.94C623.43 1064.74 625.898 1062.84 628.876 1059.61L636.294 1049.86C659.469 1015.76 677.902 961.873 647.868 925.889C646.392 923.56 639.855 915.15 639.454 913.753C636.277 902.705 645.719 887.086 640.174 874.256C636.512 865.785 629.073 856.841 622.784 850.405C598.846 825.913 591.748 799.828 600.009 766.724C605.113 746.272 623.983 725.338 645.931 725.903Z"/><path fill="#6252DF" d="M761.794 1010.35C745.531 1010.49 734.673 1009.77 721.315 998.627C700.777 981.492 702.313 947.412 719.249 928.407C737.061 908.419 760.859 920.783 783.972 919.627C786.133 920.287 796.173 919.645 799.132 919.593C784.016 948.835 754.652 923.008 729.93 935.445C724.081 940.169 721.373 942.038 718.547 949.23C711.815 969.158 716.241 991.627 736.804 1000.62C741.397 1002.63 752.208 1004.5 757.288 1001.25C773.797 987.31 758.798 974.939 783.85 961.664C800.678 961.938 803.829 964.511 817.92 973.188C847.744 999.6 873.697 1046.16 845.375 1083.06C825.314 1106.62 800.314 1104.06 772.143 1103.9C765.881 1107.92 765.267 1108.44 761.203 1114.55C758.063 1119.26 756.255 1132.06 754.005 1135.16C752.957 1126.97 755.129 1110.37 760.602 1104.28C786.773 1075.13 816.716 1102.21 842.325 1068.3C860.637 1036.93 843.835 1008.89 820.319 987.367L819.22 986.886L815.293 982.865C803.978 975.556 799.136 975.594 786.316 975.476C770.029 987.749 781.201 996.592 761.794 1010.35Z"/><path fill="#6357E3" d="M718.547 949.23L716.372 947.94C715.105 941.052 722.786 929.409 729.23 931.611L729.93 935.445C724.081 940.169 721.373 942.038 718.547 949.23Z"/><path fill="#6252DF" d="M624.173 1073.9C623.375 1071.9 623.156 1071.04 622.635 1068.94C623.43 1064.74 625.898 1062.84 628.876 1059.61C630.663 1062.15 636.932 1066.4 639.722 1067.39L639.908 1067.97C645.951 1076.54 658.602 1088.92 669.039 1090.21C681.514 1091.76 693.872 1083.46 707.95 1083.48C734.783 1103.51 729.067 1151.62 724.962 1180.35C724.063 1186.64 722.031 1193.83 721.85 1199.98C719.802 1204.84 717.807 1216.96 717.799 1222.26C712.53 1242.36 715.194 1292.02 747.933 1275.24C750.128 1274.12 756.08 1263.43 756.705 1260.91C760.463 1245.79 756.244 1229.24 758.025 1214.05C762.715 1220.88 762.064 1253.19 761.094 1262.2C758.276 1288.4 727.145 1311.32 711.343 1279.03C684.902 1227.51 743.797 1145.08 701 1100.6C695.326 1094.7 653.951 1125.57 624.173 1073.9Z"/><path fill="#6357E3" d="M624.173 1073.9C623.375 1071.9 623.156 1071.04 622.635 1068.94C623.43 1064.74 625.898 1062.84 628.876 1059.61C630.663 1062.15 636.932 1066.4 639.722 1067.39L639.908 1067.97C636.42 1070 636.065 1071.17 634.005 1074.66C630.673 1075.95 627.854 1074.96 624.173 1073.9Z"/><path fill="#6357E3" d="M645.931 725.903C655.797 727.177 663.361 725.441 672.795 726.679C661.146 730.508 647.381 729.27 636.921 735.968C613.304 751.092 606.348 781.4 614.358 807.109C622.426 834.554 650.262 845.655 656.453 873.269C660.137 889.213 646.779 917.032 647.868 925.889C646.392 923.56 639.855 915.15 639.454 913.753C636.277 902.705 645.719 887.086 640.174 874.256C636.512 865.785 629.073 856.841 622.784 850.405C598.846 825.913 591.748 799.828 600.009 766.724C605.113 746.272 623.983 725.338 645.931 725.903Z"/><path fill="#6357E3" d="M826.603 728.963L831.8 730.137C855.924 770.559 824.35 796.278 785.053 790.433C761.968 787 719.849 790.851 712.961 817.697C707.707 835.624 710.478 848.095 723.167 861.395C726.296 861.579 733.103 861.774 735.843 862.415L735.434 863.844C727.784 866.14 717.985 861.879 710.838 859.847L709.194 859.388L708.175 857.767C699.262 843.506 696.554 831.352 700.835 815.215C717.695 751.667 782.698 792.264 821.672 770.504C828.22 766.848 831.682 759.174 832.95 752.106C835.063 740.32 832.943 738.224 826.603 728.963Z"/><path fill="#6252DF" d="M645.931 725.903C652.426 722.122 669.608 723.49 677.162 720.571C684.215 717.846 692.483 715.076 699.214 711.79C737.87 692.92 804.17 688.589 831.8 730.137L826.603 728.963C812.789 716.373 793.574 708.076 775.383 704.924C747.564 700.104 722.88 710.694 697.31 719.863C689.614 722.623 681 725.853 672.795 726.679C663.361 725.441 655.797 727.177 645.931 725.903Z"/><path fill="#827EEF" d="M742.143 1148.97C743.693 1146.12 746.843 1124.49 748.826 1117.99C754.049 1126.4 750.37 1135.95 752.145 1146.22C752.287 1159.01 752.888 1168.89 754.356 1181.72C754.911 1186.58 756.32 1199.37 756.125 1203.74C754.338 1218.25 756.67 1234.28 755.327 1249.16L754.194 1247.53C755.955 1242.46 756.901 1235.39 752.848 1231.17L751.455 1231.55L749.785 1236.34C749.864 1228.54 745.064 1178.75 741.673 1175.12C742.637 1167.65 742.255 1156.74 742.143 1148.97Z"/><path fill="#C7CBFE" d="M739.433 1186.98C741.997 1182.04 739.92 1180.57 741.673 1175.12C745.064 1178.75 749.864 1228.54 749.785 1236.34C746.686 1247.96 746.913 1256.61 735.107 1264.46C733.044 1265.83 733.36 1265.55 731.146 1265.09L730.765 1263.44C736.101 1256.76 740.678 1258.81 742.114 1249.3C742.052 1236.54 736.641 1192.27 738.692 1187.02L739.433 1186.98Z"/><path fill="#827EEF" d="M742.114 1249.3C742.052 1236.54 736.641 1192.27 738.692 1187.02L739.433 1186.98L739.524 1188.38C740.382 1200.81 748.577 1240.09 742.114 1249.3Z"/><path fill="#C7CBFE" d="M802.407 996.278C804.805 997.129 816.776 1002.59 815.825 1002.31C831.112 1018.92 843.635 1041.5 825.538 1061.93C818.835 1069.5 813.461 1071.25 803.207 1071.62L802.649 1070.81C813.842 1066.17 821.313 1064.38 827 1052.44C833.439 1038.44 828.012 1024.77 820.081 1012.92C812.819 1002.07 809.492 1003.27 798.543 998.208L799.113 996.666L802.407 996.278Z"/><path fill="#6357E3" d="M789.25 871.324C799.516 881.986 805.953 906.006 799.132 919.593C796.173 919.645 786.133 920.287 783.972 919.627L784.366 918.699C797.194 913.705 798.116 900.389 793.551 888.978C793.563 886.977 789.98 875.067 789.25 871.324Z"/><path fill="#C7CBFE" d="M740.565 1133.51C741.848 1139.52 741.892 1142.93 742.143 1148.97C742.255 1156.74 742.637 1167.65 741.673 1175.12C739.92 1180.57 741.997 1182.04 739.433 1186.98L738.692 1187.02C736.953 1174.35 736.762 1144.98 740.565 1133.51Z"/><path fill="#827EEF" d="M709.194 859.388L710.838 859.847C717.985 861.879 727.784 866.14 735.434 863.844L735.843 862.415C743.709 860.715 746.615 860.032 754.591 859.927C742.762 869.694 720.127 872.85 709.194 859.388Z"/><path fill="#C7CBFE" d="M740.565 1133.51C739.329 1127.91 747.794 1109.13 752.838 1106.52C752.728 1110.52 750.54 1114.27 748.826 1117.99C746.843 1124.49 743.693 1146.12 742.143 1148.97C741.892 1142.93 741.848 1139.52 740.565 1133.51Z"/><path fill="#827EEF" d="M819.22 986.886L820.319 987.367C818.51 990.013 814.306 994.83 813.693 997.554L816.201 1000.3L815.825 1002.31C816.776 1002.59 804.805 997.129 802.407 996.278C806.036 993.563 813.525 988.702 817.924 988.603L819.22 986.886Z"/><path fill="#6357E3" d="M628.876 1059.61L636.294 1049.86C635.251 1058.01 636.182 1059.88 639.722 1067.39C636.932 1066.4 630.663 1062.15 628.876 1059.61Z"/><path fill="#827EEF" d="M721.85 1199.98C724.149 1217.1 725.166 1209.14 717.799 1222.26C717.807 1216.96 719.802 1204.84 721.85 1199.98Z"/><path fill="#C7CBFE" d="M751.981 716.576L750.038 715.378C757.59 711.743 783.923 713.584 790.272 720.094C790.227 722.332 790.442 721.469 790.02 722.749C811.493 739.13 819.369 755.27 791.754 767.409C791.23 767.64 786.301 767.438 785.426 767.395L785.996 766.503C797.154 765.604 805.372 754.187 803.463 743.467C802.49 737.417 792.59 729.179 787.54 726.59C761.656 713.314 733.717 730.625 708.621 735.26C682.907 740.009 631.896 746.851 631.564 782.788C630.475 780.348 630.005 776.55 629.502 773.769C642.96 742.443 665.315 738.538 696.051 731.507L695.883 729.027L694.63 728.043C694.14 725.382 693.852 726.603 695.173 724.252C698.085 723.741 704.297 725.758 707.485 726.584C715.899 721.731 734.154 716.674 744.01 717.847C747.737 717.725 749.552 718.374 751.981 716.576Z"/><path fill="#827EEF" d="M707.485 726.584C715.899 721.731 734.154 716.674 744.01 717.847C739.749 719.887 699.758 731.567 696.051 731.507L695.883 729.027L694.63 728.043C694.14 725.382 693.852 726.603 695.173 724.252C698.085 723.741 704.297 725.758 707.485 726.584Z"/><path fill="#827EEF" d="M751.981 716.576L750.038 715.378C757.59 711.743 783.923 713.584 790.272 720.094C790.227 722.332 790.442 721.469 790.02 722.749C775.752 715.452 767.205 715.569 751.981 716.576Z"/><path fill="#C7CBFE" d="M782.341 900.526L781.33 903.347C779.801 901.225 779.945 896.624 779.685 893.536C777.162 890.188 774.836 884.674 772.319 882.052C765.257 874.832 751.027 878.656 742.001 880.307C697.579 888.431 679.999 860.315 684.493 818.988L685.507 819.213C686.256 824.458 685.882 829.508 686.467 834.72C688.765 855.213 701.59 874.032 723.269 876.843C733.552 878.176 742.477 875.31 752.588 873.85C772.026 873.797 782.84 876.894 782.391 898.765L782.341 900.526Z"/><path fill="#C7CBFE" d="M698.255 930.017L699.121 930.054C690.717 955.972 693.181 988.583 715.641 1007.9C732.833 1022.69 745.514 1022.59 767.204 1021L766.639 1023.01C760.811 1024.64 756.671 1025.73 750.463 1025.82C734.565 1026.07 719.257 1019.8 708.103 1008.47C692.763 992.782 687.095 968.654 691.349 947.33C692.238 942.871 694.952 933.114 698.255 930.017Z"/><path fill="#A9AAF8" d="M631.564 782.788C632.184 786.219 632.497 790.593 631.511 793.974L630.233 794.234C626.627 788.569 626.775 779.726 629.502 773.769C630.005 776.55 630.475 780.348 631.564 782.788Z"/><path fill="#8480F8" d="M1246.05 822.378C1245.84 811.017 1243.97 795.298 1249.05 784.78C1272.17 736.84 1324.81 682.451 1382.63 709.427C1401.37 718.172 1423.63 742.191 1430.65 762.042C1435.45 768.112 1445.93 801.385 1446.02 809.92C1448.17 813.421 1448.96 822.783 1449.29 827.409C1455.15 909.256 1439.42 1005.43 1381.17 1067.08C1372.56 1076.19 1356.87 1081.12 1348.89 1091.15C1344.19 1096.75 1342.99 1106.36 1339.94 1110.93C1337.65 1127.59 1337.79 1137.71 1337.81 1154.56C1337.9 1164.06 1338.94 1186.7 1336.07 1194.84C1336.22 1196.25 1336.25 1197.67 1336.17 1199.08C1335.69 1207.67 1330.51 1220.86 1320.05 1220.13C1303.09 1212.77 1312.06 1164.76 1312.13 1149.5C1312.44 1136.75 1312.64 1124.14 1309.9 1111.57C1304.14 1085.11 1273.23 1096.17 1258.08 1074.02C1261.53 1068.72 1264.89 1063.37 1268.14 1057.95C1273.38 1049.21 1277.76 1039.98 1281.2 1030.4C1296.47 988.238 1293.27 942.689 1245.46 925.775C1237.63 925.656 1221.56 927.921 1217.34 925.508C1214.91 920.422 1215.91 907.424 1216.02 901.352C1221.8 896.646 1223.83 893.94 1228.54 888.172C1238.87 876.463 1245.29 838.431 1246.05 822.378Z"/><path fill="#6252DF" d="M1268.14 1057.95C1267.9 1062.22 1267.05 1062.95 1270 1066.48C1274 1071.24 1279.79 1074.06 1285.55 1076.35C1308.45 1085.49 1317.77 1087.07 1321.92 1113.08C1325.08 1132.88 1321.47 1147.43 1322.29 1166.18C1322.6 1180.47 1320.76 1191.67 1327.53 1204.3C1331.89 1204.81 1332.93 1199.64 1334.44 1196.05L1336.07 1194.84C1336.22 1196.25 1336.25 1197.67 1336.17 1199.08C1335.69 1207.67 1330.51 1220.86 1320.05 1220.13C1303.09 1212.77 1312.06 1164.76 1312.13 1149.5C1312.44 1136.75 1312.64 1124.14 1309.9 1111.57C1304.14 1085.11 1273.23 1096.17 1258.08 1074.02C1261.53 1068.72 1264.89 1063.37 1268.14 1057.95Z"/><path fill="#6252DF" d="M1246.05 822.378C1245.84 811.017 1243.97 795.298 1249.05 784.78C1272.17 736.84 1324.81 682.451 1382.63 709.427C1401.37 718.172 1423.63 742.191 1430.65 762.042C1426.31 758.572 1420.11 749.332 1416.27 744.638C1377.24 697.037 1326.99 700.84 1287.62 745.799C1271.17 764.581 1253.13 792.08 1248 817.309C1247.63 819.53 1247.24 820.503 1246.05 822.378Z"/><path fill="#6252DF" d="M1446.02 809.92C1448.17 813.421 1448.96 822.783 1449.29 827.409C1455.15 909.256 1439.42 1005.43 1381.17 1067.08C1372.56 1076.19 1356.87 1081.12 1348.89 1091.15C1344.19 1096.75 1342.99 1106.36 1339.94 1110.93C1335.35 1079.54 1360.95 1074.55 1377.39 1058.73C1422.02 1015.75 1437.83 941.212 1445.77 881.59C1448.71 859.529 1443.75 831.506 1446.02 809.92Z"/><path fill="#A9AAF8" d="M1322.29 1166.18C1327.57 1157.17 1325.37 1120.05 1327.46 1115.36C1327.43 1118.04 1327.04 1119.29 1328.58 1121.37L1329.75 1120.95C1330.46 1111.74 1332.24 1094.5 1339.12 1088.03L1339.77 1089.06C1334.67 1102.61 1329.3 1143.17 1337.81 1154.56C1337.9 1164.06 1338.94 1186.7 1336.07 1194.84L1334.44 1196.05C1332.93 1199.64 1331.89 1204.81 1327.53 1204.3C1320.76 1191.67 1322.6 1180.47 1322.29 1166.18Z"/><path fill="#6252DF" d="M1228.54 888.172C1226.61 901.769 1226.21 910.17 1225.95 923.821C1231.22 923.696 1241.64 922.596 1245.46 925.775C1237.63 925.656 1221.56 927.921 1217.34 925.508C1214.91 920.422 1215.91 907.424 1216.02 901.352C1221.8 896.646 1223.83 893.94 1228.54 888.172Z"/><path fill="#000001" d="M1307.3 844.8C1310.09 836.888 1321.97 824.89 1329.58 821.412C1352.51 810.931 1371.81 822.667 1381.02 844.567C1396.13 880.513 1392.67 956.856 1354.39 977.568C1340.61 982.67 1326.55 981.36 1316.08 970.689C1305.63 960.056 1296.02 936.375 1295.8 921.973C1290.64 912.378 1295.26 867.205 1301.11 856.733C1302.8 852.029 1304.47 848.848 1307.3 844.8Z"/><path fill="#6357E3" d="M1307.3 844.8C1310.09 836.888 1321.97 824.89 1329.58 821.412C1352.51 810.931 1371.81 822.667 1381.02 844.567C1396.13 880.513 1392.67 956.856 1354.39 977.568C1351.14 976.756 1350.2 976.466 1347.11 975.214C1343.02 969.156 1344.09 970.226 1336.97 969.976L1336 968.818C1348.68 965.167 1355.34 964.575 1362.97 951.091C1376.85 926.564 1376.41 888.502 1369.98 861.877C1369.76 861.538 1369.55 861.199 1369.33 860.859C1366.84 853.116 1362.69 846.848 1358.2 840.064C1339.41 826.185 1322.9 834.242 1312.81 853.505L1309.42 852.758C1307.12 850.096 1307.79 849.123 1307.3 844.8Z"/><path fill="#6252DF" d="M1358.2 840.064C1369.83 844.331 1365.76 838.942 1371.37 840.876C1371.27 843.822 1371.08 845.024 1370.38 847.938C1369.12 853.133 1370.88 856.253 1369.98 861.877C1369.76 861.538 1369.55 861.199 1369.33 860.859C1366.84 853.116 1362.69 846.848 1358.2 840.064Z"/><path fill="#6252DF" d="M1295.8 921.973C1290.64 912.378 1295.26 867.205 1301.11 856.733L1302.47 858.967L1305.5 859.471C1307.44 862.543 1306.68 863.961 1306.71 868.328C1305.02 874.222 1303.4 879.253 1303.94 885.526C1299.79 895.935 1302.65 919.354 1305.09 930.224C1308.79 946.686 1317.62 966.075 1336 968.818L1336.97 969.976C1344.09 970.226 1343.02 969.156 1347.11 975.214C1350.2 976.466 1351.14 976.756 1354.39 977.568C1340.61 982.67 1326.55 981.36 1316.08 970.689C1305.63 960.056 1296.02 936.375 1295.8 921.973Z"/><path fill="#6357E3" d="M1295.8 921.973C1290.64 912.378 1295.26 867.205 1301.11 856.733L1302.47 858.967L1305.5 859.471C1307.44 862.543 1306.68 863.961 1306.71 868.328C1305.02 874.222 1303.4 879.253 1303.94 885.526C1301.8 886.678 1298.86 888.15 1298.55 890.642C1297.13 902.201 1297.98 910.052 1295.8 921.973Z"/><path fill="#6357E3" d="M1301.11 856.733C1302.8 852.029 1304.47 848.848 1307.3 844.8C1307.79 849.123 1307.12 850.096 1309.42 852.758L1312.81 853.505C1310.46 858.631 1308.33 862.897 1306.71 868.328C1306.68 863.961 1307.44 862.543 1305.5 859.471L1302.47 858.967L1301.11 856.733Z"/><path fill="#C7CBFE" d="M1426.39 913C1424.84 947.954 1393.48 1038.82 1361.41 1053.03C1361.79 1050.91 1364.23 1049.1 1365.83 1047.36C1411.01 998.41 1422.43 918.714 1425.67 854.611C1427.55 817.492 1417.36 778.841 1392.15 751.751C1371.26 729.302 1339.61 724.901 1314.69 743.14C1313.8 743.782 1312.17 745.499 1310.94 746.432L1310.57 744.783C1316.82 737.011 1327.58 730.936 1337.17 728.766C1353.23 725.151 1370.06 728.301 1383.73 737.476C1407.05 753.053 1423.18 784.949 1428.34 811.83L1428.56 812.996L1429.74 813.903L1432.56 819.882L1433.28 815.645C1434.24 824.816 1433.3 832.252 1433.91 840.486C1435.65 863.904 1434.78 889.05 1429.4 912.051C1428.09 912.549 1427.76 912.762 1426.39 913Z"/><path fill="#827EEF" d="M1429.74 813.903L1432.56 819.882L1433.28 815.645C1434.24 824.816 1433.3 832.252 1433.91 840.486C1435.65 863.904 1434.78 889.05 1429.4 912.051C1428.09 912.549 1427.76 912.762 1426.39 913C1434.76 894.283 1431.12 835.458 1429.74 813.903Z"/><path fill="#C7CBFE" d="M1330.71 806.351C1336.5 805.415 1348.76 805.228 1354.06 807.981L1353.75 809.322C1350.2 810.66 1347.36 810.719 1343.55 810.484C1329.2 809.599 1319.39 814.385 1309.15 823.997C1297.95 834.505 1285.79 860.898 1285.4 876.04C1285.12 886.632 1285.99 903.968 1286 915.843C1285.74 920.914 1283.73 929.561 1285.84 933.456L1285.16 934.827C1283.82 934.151 1282.91 933.562 1282.58 931.882C1273.05 882.884 1279.4 824.625 1330.71 806.351Z"/><path fill="#8480F8" d="M1068.14 753.011C1096.81 721.982 1130.07 699.141 1174.32 710.092C1189.02 713.733 1205.21 724.707 1212.69 738.003C1217.17 743.315 1219.38 748.769 1222.03 755.162C1239.4 786.011 1238.06 915.977 1173.28 898.585C1128.76 886.634 1163.32 832.279 1142.9 819.934C1096.86 833.108 1085.23 996.338 1152 995.918C1164.95 988.711 1168.03 989.655 1178.08 976.149C1182.37 970.382 1194.53 956.855 1200.47 952.697C1256.08 913.763 1287.39 972.136 1267.3 1022.07C1266.03 1033.09 1248.65 1063.26 1241.63 1071.84C1238.73 1075.35 1235.66 1079.24 1232.67 1082.61C1219.05 1096.62 1210.44 1102.17 1193.35 1111.26C1180.12 1118.3 1175.14 1140.05 1175.73 1153.78C1175.3 1172.97 1186.65 1199.67 1168.96 1213.59C1141.3 1222.26 1144.51 1186.16 1145.73 1169.63C1146.9 1153.8 1148.31 1136.92 1139.26 1123.13L1137.44 1121.03C1123.61 1109.62 1101.78 1120.47 1073.36 1092.51C1073.7 1087.6 1075.98 1066.35 1077.86 1062.83C1078.58 1014.9 1055.5 968.91 1040.92 924.238C1038.22 915.963 1031.09 896.775 1030.05 888.844C1006 852.971 1046.66 781.935 1068.14 753.011Z"/><path fill="#6252DF" d="M1222.03 755.162C1239.4 786.011 1238.06 915.977 1173.28 898.585C1128.76 886.634 1163.32 832.279 1142.9 819.934C1096.86 833.108 1085.23 996.338 1152 995.918C1164.95 988.711 1168.03 989.655 1178.08 976.149C1182.37 970.382 1194.53 956.855 1200.47 952.697C1256.08 913.763 1287.39 972.136 1267.3 1022.07C1266.03 1033.09 1248.65 1063.26 1241.63 1071.84C1242.08 1064.53 1243.17 1065.06 1237.04 1062.66C1244.37 1051.72 1251.28 1038.47 1256.28 1026.32C1258.67 1020.5 1259.87 1014.7 1262.58 1008.81C1261.03 1001.43 1268.24 985.363 1261.99 973.711C1257.94 966.166 1252.78 955.953 1242.84 953.26C1209.61 944.265 1192.38 989.035 1166.45 1000.07C1152.83 1005.87 1146.03 1005.08 1133.48 1000.84C1130.05 998.168 1124.66 995.302 1121.75 992.248C1080.38 948.828 1093.46 858.054 1129.31 817.494C1137.16 808.982 1142.56 807.014 1153.35 810.882C1174.08 836.799 1142.58 882.723 1192.49 886.096C1198.49 883.136 1199.36 885.417 1206.2 879.626C1211.24 876.439 1214.88 868.614 1216.69 863.099C1223.71 841.209 1230.03 793.154 1221.79 771.204L1221.84 767.665C1221.32 762.576 1221.58 760.307 1222.03 755.162Z"/><path fill="#6252DF" d="M1068.14 753.011C1096.81 721.982 1130.07 699.141 1174.32 710.092C1189.02 713.733 1205.21 724.707 1212.69 738.003C1206.38 736.377 1206.99 732.803 1201.7 730.28C1184.86 718.287 1163.98 713.407 1143.57 716.699C1129.67 718.975 1119.45 723.599 1108.1 731.529C1097.8 736.834 1079.65 754.822 1072.98 764.287C1052.81 792.945 1035.62 834.705 1030.37 869.504C1029.19 877.33 1030.27 882.045 1030.05 888.844C1006 852.971 1046.66 781.935 1068.14 753.011Z"/><path fill="#6357E3" d="M1181.24 1111.85C1194.15 1100.38 1206.83 1091.83 1220.28 1081.13C1221.75 1079.96 1221.95 1079.44 1223.76 1078.44C1227.61 1081.32 1227.82 1081.78 1232.67 1082.61C1219.05 1096.62 1210.44 1102.17 1193.35 1111.26C1180.12 1118.3 1175.14 1140.05 1175.73 1153.78C1175.3 1172.97 1186.65 1199.67 1168.96 1213.59C1141.3 1222.26 1144.51 1186.16 1145.73 1169.63C1146.9 1153.8 1148.31 1136.92 1139.26 1123.13C1141 1122.24 1142.74 1122.06 1144.7 1121.64C1147.12 1119.35 1146.35 1119.56 1146.88 1115.27C1164.95 1138.02 1147.87 1185.1 1159.11 1202.05C1168.05 1208.43 1172.65 1199.45 1172.26 1191.19C1172.99 1165.7 1163.49 1134.23 1181.24 1111.85Z"/><path fill="#6252DF" d="M1073.36 1092.51C1073.7 1087.6 1075.98 1066.35 1077.86 1062.83C1078.2 1068.22 1078.18 1071.01 1077.83 1076.41C1100.48 1104.3 1129.56 1098.1 1142.87 1110.75L1146.88 1115.27C1146.35 1119.56 1147.12 1119.35 1144.7 1121.64C1142.74 1122.06 1141 1122.24 1139.26 1123.13L1137.44 1121.03C1123.61 1109.62 1101.78 1120.47 1073.36 1092.51Z"/><path fill="#C7CBFE" d="M1172.26 1191.19C1171.39 1192.34 1170.91 1193.03 1170.11 1194.28L1169.38 1195.45L1168.07 1195.69C1167.07 1192.87 1168.4 1184.72 1168.4 1180.58C1162.81 1171.36 1164.36 1146.87 1166.42 1136.27C1169.2 1121.94 1175.52 1108.45 1187.92 1100.02C1186.84 1103.62 1183.18 1107.48 1181.24 1111.85C1163.49 1134.23 1172.99 1165.7 1172.26 1191.19Z"/><path fill="#827EEF" d="M1201.7 730.28C1206.99 732.803 1206.38 736.377 1212.69 738.003C1217.17 743.315 1219.38 748.769 1222.03 755.162C1221.58 760.307 1221.32 762.576 1221.84 767.665C1215.74 756.811 1210.33 745.386 1204.25 734.61C1203.11 732.583 1203.07 733.234 1201.7 730.28Z"/><path fill="#6357E3" d="M1237.04 1062.66C1243.17 1065.06 1242.08 1064.53 1241.63 1071.84C1238.73 1075.35 1235.66 1079.24 1232.67 1082.61C1227.82 1081.78 1227.61 1081.32 1223.76 1078.44C1228.33 1073.18 1232.74 1068.16 1237.04 1062.66Z"/><path fill="#827EEF" d="M1192.49 886.096C1192.23 883.183 1192 883.214 1193.27 880.659C1196.84 878.96 1196.19 879.599 1200.81 880.067C1203.54 880.5 1203.47 880.336 1206.2 879.626C1199.36 885.417 1198.49 883.136 1192.49 886.096Z"/><path fill="#C7CBFE" d="M1089.34 879.317L1092.31 875.76L1093.88 875.65C1096.23 883.866 1091.42 905.854 1090.6 915.738C1089.68 926.844 1091.27 944.795 1089.6 954.746C1090.37 968.398 1098.88 989.985 1108.27 1000.17C1122.58 1015.68 1127.53 1016.86 1147.53 1018.35L1148.48 1019.46C1140.99 1020.4 1135.56 1020.78 1128.14 1018.7C1115.23 1015.09 1104.35 1006.37 1098.01 994.558C1080.28 961.12 1078.47 914.726 1089.34 879.317Z"/><path fill="#827EEF" d="M1089.34 879.317L1092.31 875.76L1093.88 875.65C1096.23 883.866 1091.42 905.854 1090.6 915.738C1089.68 926.844 1091.27 944.795 1089.6 954.746C1084.32 946.061 1087.02 910.441 1088.54 900.084C1089.6 892.889 1090.35 886.843 1089.34 879.317Z"/><path fill="#C7CBFE" d="M1226.74 972.562C1245.41 971.903 1251.58 995.407 1248.42 1010.28C1243.94 1031.41 1226.31 1059.09 1208.57 1070.96L1207.9 1070.24C1210.64 1064.69 1214.48 1061.24 1218.74 1056.71C1231.49 1040.52 1255.37 1001.11 1238.06 982.107C1234.93 978.654 1230.5 976.657 1225.84 976.592C1214.77 976.412 1206.64 985.078 1199.62 992.229C1204.95 983.649 1210.38 976.515 1220.84 973.999L1226.74 972.562Z"/><path fill="#D0D7FE" d="M1170.33 731.041C1184.45 734.181 1194.97 741.804 1202.78 754.102C1204.96 757.475 1206.84 761.024 1208.43 764.712C1213.36 778.929 1212.64 782.542 1215.04 795.326C1216.19 799.096 1215.8 803.555 1215.75 807.573C1213.06 811.597 1214.65 812.03 1212.3 815.032C1213.03 810.506 1211.85 803.329 1209.83 799.14C1205.33 768.886 1198.51 744.849 1165.83 735.329C1167.11 733.514 1168.6 732.507 1170.33 731.041Z"/><path fill="#C7CBFE" d="M1111.44 742.004C1123.03 734.324 1136.02 730.054 1149.85 728.85C1154.4 728.454 1166.55 728.892 1170.33 731.041C1168.6 732.507 1167.11 733.514 1165.83 735.329C1158.48 736.207 1151.71 731.841 1144.22 735.415C1139.04 737.886 1130.32 735.88 1125.05 740.437C1106.11 749.593 1093.68 759.475 1081 776.442C1077.51 781.107 1071.49 793.798 1068.71 795.614C1067.67 790.382 1073.87 781.25 1076.82 776.87C1085.96 763.087 1097.72 751.239 1111.44 742.004Z"/><path fill="#C7CBFE" d="M1209.83 799.14C1211.85 803.329 1213.03 810.506 1212.3 815.032C1214.65 812.03 1213.06 811.597 1215.75 807.573C1216.01 815.123 1214.71 825.048 1213.16 832.48C1211.95 837.917 1210.34 843.558 1209.22 848.881C1203.52 856.579 1206.09 858.773 1196.28 866.731C1190.81 868.524 1186.53 868.289 1180.78 868.46C1174.36 864.014 1172.58 861.871 1172.52 854.037L1173.3 853.609C1174.07 861.233 1177.63 863.824 1184.75 863.572L1185.56 865.023C1210.21 864.256 1210.02 816.432 1209.83 799.14Z"/><path fill="#827EEF" d="M1215.04 795.326L1215.55 789.055L1216.59 788.406C1219.79 794.573 1218.13 826.961 1215.61 835.544L1214.34 836.854C1213.8 835.112 1213.46 834.279 1213.16 832.48C1214.71 825.048 1216.01 815.123 1215.75 807.573C1215.8 803.555 1216.19 799.096 1215.04 795.326Z"/><path fill="#8480F8" d="M914.944 726.147C934.397 710.258 964.383 709.182 976.784 733.851L977.775 734.949C990.349 752.808 995.642 809.218 1000.85 833.785C1008.15 871.058 1018.62 906.56 1031.13 942.433C1040.75 970.032 1052.35 997.64 1058.97 1026.06C1066.21 1057.2 1063.13 1105.95 1034.08 1125.81C1010.24 1141.26 979.81 1135.88 963.719 1112.02C943.889 1082.63 951.015 1043.96 958.311 1011.76C959.242 1007.65 960.962 999.813 957.585 996.589C950.927 990.259 933.699 991.737 924.866 991.909C914.351 997.743 918.107 999.03 912.528 1005.01C911.645 1019.19 912.603 1033.2 912.048 1047.4C911.666 1057.15 905.394 1068.86 904.123 1077.19C902.707 1079.73 900.645 1083.68 899.111 1086.01L895.832 1090.93C891.785 1095.55 889.826 1097.71 885.153 1101.79C876.649 1107.59 848.606 1119.65 839.857 1111.72L839.943 1109.51C842.664 1105.46 850.66 1099.91 855.312 1095.8C875.463 1074.91 876.726 1040.87 867.033 1014.95C859.627 995.156 849.771 982.286 834.983 967.683C830.502 964.211 826.357 961.506 823.091 956.919C822.702 952.84 835.907 927.697 838.806 923.258C871.66 872.935 867.243 802.172 894.128 751.913C899.247 741.782 905.089 734.739 913.46 727.291L914.944 726.147Z"/><path fill="#827EEF" d="M977.775 734.949C990.349 752.808 995.642 809.218 1000.85 833.785C1008.15 871.058 1018.62 906.56 1031.13 942.433C1040.75 970.032 1052.35 997.64 1058.97 1026.06C1066.21 1057.2 1063.13 1105.95 1034.08 1125.81C1035.77 1114.51 1046.67 1111.15 1045.86 1103.87L1043.02 1102.97C1043.43 1101.43 1043.45 1101.3 1044.18 1100.02C1048.61 1092.26 1056.45 1070.37 1057.15 1062.09C1059.08 1039.01 1049.59 1012.13 1042.44 990.442C1040.3 983.956 1037.17 973.641 1033.95 968.008C1033.57 971.592 1033.02 973.168 1034.62 976.152C1036.46 979.602 1036.73 1005.59 1035.73 1007.94L1034.76 1007.63C1033.21 1002.88 1026.59 979.25 1025.18 974.582C1018.04 950.903 982.32 864.957 984.328 844.387C981.132 837.631 979.848 811.527 979.928 803.573C978.408 784.659 975.137 766.908 966.87 749.846L969.297 749.239L969.999 747.469C968.905 745.1 967.124 740.826 969.975 739.093L968.942 740.469L971.067 740.312C974.984 745.433 977.525 747.295 980.4 753.008C980.95 746.973 977.099 744.614 977.775 734.949Z"/><path fill="#6357E3" d="M977.775 734.949C990.349 752.808 995.642 809.218 1000.85 833.785C1008.15 871.058 1018.62 906.56 1031.13 942.433C1040.75 970.032 1052.35 997.64 1058.97 1026.06C1066.21 1057.2 1063.13 1105.95 1034.08 1125.81C1035.77 1114.51 1046.67 1111.15 1045.86 1103.87L1043.02 1102.97C1043.43 1101.43 1043.45 1101.3 1044.18 1100.02C1048.61 1092.26 1056.45 1070.37 1057.15 1062.09C1059.08 1039.01 1049.59 1012.13 1042.44 990.442C1040.3 983.956 1037.17 973.641 1033.95 968.008C1032.99 963.067 1026 945.192 1023.97 939.504C1018.69 924.391 1013.93 909.102 1009.7 893.665C1008.32 888.5 1007.34 877.365 1006.14 873.814C999.63 854.448 996.353 834.89 992.36 814.923C988.107 793.656 988.374 773.116 980.4 753.008C980.95 746.973 977.099 744.614 977.775 734.949Z"/><path fill="#6252DF" d="M905.898 1002.81C908.269 972.691 957.137 971.671 973.483 992.392C975.668 1013.48 970.443 1023.36 967.031 1043.55C963.08 1066.93 966.749 1096.27 986.638 1111.89C1005.88 1127 1027.78 1120.76 1043.02 1102.97L1045.86 1103.87C1046.67 1111.15 1035.77 1114.51 1034.08 1125.81C1010.24 1141.26 979.81 1135.88 963.719 1112.02C943.889 1082.63 951.015 1043.96 958.311 1011.76C959.242 1007.65 960.962 999.813 957.585 996.589C950.927 990.259 933.699 991.737 924.866 991.909C914.351 997.743 918.107 999.03 912.528 1005.01L911.565 1003.35L909.867 1003.1C907.723 1005.68 907.893 1007.57 907.142 1011.2C906.174 1009.8 906.085 1004.92 905.898 1002.81Z"/><path fill="#6252DF" d="M894.128 751.913C897.347 751.367 900.32 747.87 903.221 745.428C903.684 749.853 902.758 748.101 905.852 750.99C902.164 760.153 894.228 775.816 892.301 784.867C882.482 830.961 876.782 878.195 853.326 919.982C846.952 931.337 835.217 949.891 832.292 962.341C832.26 962.731 834.564 966.632 834.983 967.683C830.502 964.211 826.357 961.506 823.091 956.919C822.702 952.84 835.907 927.697 838.806 923.258C871.66 872.935 867.243 802.172 894.128 751.913Z"/><path fill="#C7CBFE" d="M979.692 851.943C979.768 847.902 979.038 846.253 980.955 843.6L984.328 844.387C982.32 864.957 1018.04 950.903 1025.18 974.582C1026.59 979.25 1033.21 1002.88 1034.76 1007.63L1035.73 1007.94C1036.6 1022.74 1043.55 1046.23 1039.92 1060.73C1034.86 1080.91 1022.52 1108.17 996.937 1099.33C991.166 1097.33 984.205 1085.98 984.378 1079.89L985.279 1079.32C989.571 1094.25 997.349 1096.59 1011.37 1096.33C1079.07 1061.52 982.652 902.756 979.692 851.943Z"/><path fill="#8480F8" d="M914.944 726.147C934.397 710.258 964.383 709.182 976.784 733.851L977.775 734.949C977.099 744.614 980.95 746.973 980.4 753.008C977.525 747.295 974.984 745.433 971.067 740.312L968.942 740.469L969.975 739.093C967.124 740.826 968.905 745.1 969.999 747.469L969.297 749.239L966.87 749.846C960.507 741.926 958.491 740.604 950.107 735.55C944.843 735.428 939.587 735.722 934.323 735.931C928.928 735.546 923.725 740.128 918.233 737.932C918.377 734.59 918.445 735.559 921.331 732.361C917.981 731.834 917.605 733.038 914.309 732.028L913.46 727.291L914.944 726.147Z"/><path fill="#6357E3" d="M914.944 726.147C934.397 710.258 964.383 709.182 976.784 733.851C957.835 718.043 944.823 715.357 924.059 730.641C923.14 731.294 922.314 732.041 921.331 732.361C917.981 731.834 917.605 733.038 914.309 732.028L913.46 727.291L914.944 726.147Z"/><path fill="#C7CBFE" d="M913.46 727.291L914.309 732.028C917.605 733.038 917.981 731.834 921.331 732.361C918.445 735.559 918.377 734.59 918.233 737.932C923.725 740.128 928.928 735.546 934.323 735.931C939.587 735.722 944.843 735.428 950.107 735.55C958.491 740.604 960.507 741.926 966.87 749.846C975.137 766.908 978.408 784.659 979.928 803.573C977.666 800.651 976.851 796.464 975.282 792.832C973.935 795.626 974.067 799.063 973.872 802.256C971.012 797.601 971.122 773.124 967.103 763.537C948.88 720.073 919.447 743.548 906.4 775.866L905.927 777.793L904.815 778.269C902.032 769.669 910.283 751.05 908.948 746.724L907.76 747.109C907.242 748.69 906.697 749.571 905.852 750.99C902.758 748.101 903.684 749.853 903.221 745.428C900.32 747.87 897.347 751.367 894.128 751.913C899.247 741.782 905.089 734.739 913.46 727.291Z"/><path fill="#827EEF" d="M913.46 727.291L914.309 732.028C917.605 733.038 917.981 731.834 921.331 732.361C918.445 735.559 918.377 734.59 918.233 737.932C923.725 740.128 928.928 735.546 934.323 735.931C918.281 745.24 911.837 754.501 906.733 772.295C906.285 773.858 906.285 774.247 906.4 775.866L905.927 777.793L904.815 778.269C902.032 769.669 910.283 751.05 908.948 746.724L907.76 747.109C907.242 748.69 906.697 749.571 905.852 750.99C902.758 748.101 903.684 749.853 903.221 745.428C900.32 747.87 897.347 751.367 894.128 751.913C899.247 741.782 905.089 734.739 913.46 727.291Z"/><path fill="#6252DF" d="M887.743 1083.24L890.363 1084C891.569 1086.31 891.796 1087.14 892.606 1089.65L895.832 1090.93C891.785 1095.55 889.826 1097.71 885.153 1101.79C876.649 1107.59 848.606 1119.65 839.857 1111.72L839.943 1109.51C842.664 1105.46 850.66 1099.91 855.312 1095.8C855.692 1096.35 857.08 1097.74 857.596 1098.28C868.016 1099.15 880.633 1090.48 887.743 1083.24Z"/><path fill="#6357E3" d="M905.898 1002.81C906.085 1004.92 906.174 1009.8 907.142 1011.2C907.893 1007.57 907.723 1005.68 909.867 1003.1L911.565 1003.35L912.528 1005.01C911.645 1019.19 912.603 1033.2 912.048 1047.4C911.666 1057.15 905.394 1068.86 904.123 1077.19C902.707 1079.73 900.645 1083.68 899.111 1086.01L895.832 1090.93L892.606 1089.65C891.796 1087.14 891.569 1086.31 890.363 1084L887.743 1083.24L894.355 1074.88C914.124 1045.85 899.248 1014.54 905.898 1002.81Z"/><path fill="#6357E3" d="M887.743 1083.24L894.355 1074.88L897.194 1076.31C898.017 1080.62 896.697 1082.41 899.111 1086.01L895.832 1090.93L892.606 1089.65C891.796 1087.14 891.569 1086.31 890.363 1084L887.743 1083.24Z"/><path fill="#D0D7FE" d="M973.872 802.256C974.067 799.063 973.935 795.626 975.282 792.832C976.851 796.464 977.666 800.651 979.928 803.573C979.848 811.527 981.132 837.631 984.328 844.387L980.955 843.6C979.038 846.253 979.768 847.902 979.692 851.943C976.51 845.601 973.691 810.619 973.872 802.256Z"/><path fill="#000001" d="M938.571 833.094C958.035 842.501 959.784 863.624 966.553 882.655C971.637 896.947 982.46 926.352 962.402 933.334C955.25 935.919 934.44 934.746 927.49 931.598L923.898 933.399C895.048 920.242 913.121 905.872 906.68 894.841C896.289 897.959 906.748 901.736 898.063 912.557C896.676 891.145 910.031 860.781 909.955 847.097C909.771 844.411 910.098 842.044 912.882 841.12C914.827 846.335 914.962 854.09 916.131 860.266L917.039 859.862C918.274 855.736 925.75 840.481 929.874 839.628L938.571 833.094Z"/><path fill="#6357E3" d="M938.571 833.094C958.035 842.501 959.784 863.624 966.553 882.655C971.637 896.947 982.46 926.352 962.402 933.334C955.25 935.919 934.44 934.746 927.49 931.598L927.614 930.397C935.56 927.653 943.588 932.402 952.209 927.913C956.32 925.923 956.984 925.895 959.399 922.259C961.26 911.306 942.633 849.559 932.288 844.902C933.328 843.758 932.914 844.453 933.389 842.739L929.81 841.395L929.874 839.628L938.571 833.094Z"/><path fill="#827EEF" d="M909.955 847.097C909.771 844.411 910.098 842.044 912.882 841.12C914.827 846.335 914.962 854.09 916.131 860.266L917.039 859.862C918.274 855.736 925.75 840.481 929.874 839.628L929.81 841.395L933.389 842.739C932.914 844.453 933.328 843.758 932.288 844.902C925.6 854.86 904.33 910.728 918.655 923.509C920.679 925.315 947.344 927.953 952.209 927.913C943.588 932.402 935.56 927.653 927.614 930.397L927.49 931.598L923.898 933.399C895.048 920.242 913.121 905.872 906.68 894.841C896.289 897.959 906.748 901.736 898.063 912.557C896.676 891.145 910.031 860.781 909.955 847.097Z"/><path fill="#827EEF" d="M913.377 854.792C915.856 859.951 913.548 864.012 910.882 868.357C908.177 862.761 910.028 859.188 913.377 854.792Z"/><path fill="#C7CBFE" d="M909.955 847.097C910.031 860.781 896.676 891.145 898.063 912.557C897.732 922.354 897.923 933.998 909 938.154C914.954 937.783 918.864 937.28 924.802 938.256C931.75 938.331 937.822 937.375 944.115 939.54C944.977 941.008 944.88 940.921 945.455 942.523C936.748 947.079 913.617 947.379 905.051 942.847C878.319 928.705 899.361 866.045 909.955 847.097Z"/><path fill="#827EEF" d="M909 938.154C914.954 937.783 918.864 937.28 924.802 938.256C931.75 938.331 937.822 937.375 944.115 939.54C944.977 941.008 944.88 940.921 945.455 942.523C935.886 941.794 917.146 943.021 909 938.154Z"/><path fill="#A9AAF8" d="M909.859 963.788C912.438 964.337 921.547 966.894 923.12 966.999C930.404 967.485 937.75 966.826 944.977 969.224C941.375 975.35 909.238 965.156 898.744 991.347C893.658 1000.19 893.892 1010.71 893.389 1020.69C889.22 1000.91 890.877 994.942 901.418 978.194L900.041 975.114L900.851 973.944C907.77 970.747 909.404 971.332 909.859 963.788Z"/><path fill="#6252DF" d="M818.1 828.228C824.88 825.626 832.092 823.567 839.305 820.847C841.7 826.706 831.836 865.482 827.325 871.597C823.893 869.047 821.433 863.103 818.583 859.458C808.644 846.749 797.423 839.253 782.508 834.166C781.002 834.163 755.65 831.208 752.516 830.851L753.086 830.04C764.111 826.674 805.504 827.374 818.1 828.228Z"/><path fill="#473E8B" d="M782.508 834.166C781.002 834.163 755.65 831.208 752.516 830.851L753.086 830.04C764.111 826.674 805.504 827.374 818.1 828.228C807.792 833.656 779.173 827.022 775.524 831.162C779.745 834.661 776.206 829.635 782.508 834.166Z"/><path fill="#6357E3" d="M395.907 1056.44L397.632 1060.46C391.289 1063.24 384.537 1060.89 377.96 1062.5C370.468 1062.31 365.291 1062.2 357.736 1062.25C373.091 1050.6 387.793 1061.5 395.907 1056.44Z"/><path fill="#00000D" d="M904.123 1077.19C904.962 1091.26 901.791 1101.64 885.153 1101.79C889.826 1097.71 891.785 1095.55 895.832 1090.93L899.111 1086.01C900.645 1083.68 902.707 1079.73 904.123 1077.19Z"/><path fill="#6357E3" d="M788.317 1330.33C789.623 1331.55 791.357 1332.13 792.993 1332.99L790.52 1338.65C789.642 1339.41 790.273 1338.98 788.364 1339.39C787.503 1336.13 788.007 1333.69 788.317 1330.33Z"/></svg>